<?xml version="1.0" encoding="UTF-8"?>
<!-- 과제물 제출 타임라인 — 1주차 원본 13쪽 -->
<svg xmlns="http://www.w3.org/2000/svg" viewBox="0 0 1120 300" role="img" aria-label="과제물 제출 일시는 강의일 하루 전 3. 10, 23:59:59 까지, 본 강의는 3. 11, 11:00">
  <line x1="150" y1="150" x2="1040" y2="150" stroke="#DEEBF7" stroke-width="14" stroke-linecap="round"/>
  <path d="M1044 150 l-26 -14 v28z" fill="#DEEBF7"/>

  <g transform="translate(58,112)">
    <path d="M38 0 l7 9 11-4 -2 12 11 5 -9 8 5 11 -12-1 -3 12 -9-8 -9 8 -3-12 -12 1 5-11 -9-8 11-5 -2-12 11 4z" fill="#4BA3E3"/>
    <text x="38" y="43" text-anchor="middle" font-family="Outfit, sans-serif" font-size="15" font-weight="700" fill="#FFFFFF">ex</text>
  </g>

  <g>
    <circle cx="360" cy="150" r="17" fill="#C00000"/>
    <text x="360" y="108" text-anchor="middle" font-family="Outfit, sans-serif" font-size="25" font-weight="700" fill="#C00000">3. 10, 23:59:59</text>
    <text x="360" y="205" text-anchor="middle" font-family="Noto Sans KR, sans-serif" font-size="21" font-weight="800" fill="#C00000">과제물 제출 일시</text>
  </g>
  <g>
    <circle cx="800" cy="150" r="17" fill="#D9A441"/>
    <text x="800" y="108" text-anchor="middle" font-family="Outfit, sans-serif" font-size="25" font-weight="600" fill="#3B3838">3. 11, 11:00</text>
    <text x="800" y="205" text-anchor="middle" font-family="Noto Sans KR, sans-serif" font-size="21" font-weight="800" fill="#3B3838">본 강의</text>
  </g>

  <path id="tl68" d="M790 228 A497 497 0 0 1 372 240" fill="none" stroke="#C87B72" stroke-width="4"/>
  <path d="M372 240 l22 -2 -12 -14z" fill="#C87B72"/>
  <text x="580" y="298" text-anchor="middle" font-family="Noto Sans KR, sans-serif" font-size="18" font-weight="800" fill="#B0655C">강의일 하루 전까지</text>
</svg>