<svg xmlns="http://www.w3.org/2000/svg" viewBox="0 0 900 560" width="100%" preserveAspectRatio="xMidYMid meet">
<title>STEP 5 DNS 관리 화면</title><desc>Cloudflare DNS Records 화면 열기</desc>
<style>
  text{font-family:'Nanum Gothic','Malgun Gothic','Noto Sans KR','Apple SD Gothic Neo',sans-serif;}
  .m{font-family:'NanumGothicCoding','D2Coding','Consolas','Courier New',monospace;}
  .b{font-weight:700;}
  .s10{font-size:10px}.s11{font-size:11px}.s12{font-size:12px}.s13{font-size:13px}
  .s14{font-size:14px}.s16{font-size:16px}.s18{font-size:18px}.s20{font-size:20px}
  .s24{font-size:24px}.s28{font-size:28px}
  .fg{fill:#24292F}.fm{fill:#5B6B7C}.fw{fill:#FFFFFF}.fb{fill:#0969DA}
  .fo{fill:#F26B21}.fn{fill:#0E2A47}.fgr{fill:#1A7F37}.fr{fill:#C4341C}
</style>
<rect x="0" y="0" width="900" height="560" fill="#FFFFFF"/>

<rect x="8" y="8" width="884" height="544" rx="12" fill="#FFFFFF" stroke="#D9E0E8" stroke-width="1.5"/>
<path d="M8 20a12 12 0 0 1 12-12h860a12 12 0 0 1 12 12v60H8z" fill="#EDF1F5"/>
<circle cx="34" cy="30" r="6" fill="#FF5F57"/><circle cx="54" cy="30" r="6" fill="#FEBC2E"/><circle cx="74" cy="30" r="6" fill="#28C840"/>
<rect x="28" y="52" width="836" height="24" rx="12" fill="#FFFFFF" stroke="#D9E0E8" stroke-width="1"/>
<text x="46" y="69" class="s12 m fm">dash.cloudflare.com</text>
<rect x="8" y="84" width="884" height="44" fill="#F38020"/>
<rect x="8" y="128" width="884" height="424" fill="#FFFFFF"/><text x="30" y="112" class="s12 b fw">CLOUDFLARE</text><rect x="36" y="152" width="190" height="376" rx="8" fill="#FAFBFC" stroke="#D9E0E8" stroke-width="1"/><text x="62" y="182" class="s12 fg">Overview</text><text x="62" y="214" class="s12 fg">Analytics</text><rect x="42" y="227" width="178" height="28" rx="6" fill="#FFF1E7"/><rect x="42" y="227" width="3" height="28" rx="2" fill="#F26B21"/><text x="62" y="246" class="s12 b fo">DNS</text><rect x="42" y="259" width="178" height="28" rx="6" fill="#FFF8F2"/><text x="78" y="278" class="s12 b fo">Records</text><text x="62" y="310" class="s12 fg">Email</text><text x="62" y="342" class="s12 fg">SSL/TLS</text><text x="62" y="374" class="s12 fg">Security</text><text x="62" y="406" class="s12 fg">Speed</text><rect x="248" y="152" width="616" height="376" rx="8" fill="#FFFFFF" stroke="#D9E0E8" stroke-width="1"/><text x="274" y="190" class="s16 b fg">DNS records for 내도메인.kr</text><rect x="274" y="208" width="140" height="32" rx="6" fill="#F26B21"/><text x="344" y="229" text-anchor="middle" class="s12 b fw">+ Add record</text><text x="274" y="272" class="s12 fm">현재 등록된 레코드가 여기 표로 보인다</text><rect x="274" y="286" width="566" height="220" rx="8" fill="#F4F6F9" stroke="#D9E0E8" stroke-width="1"/><text x="557" y="400" text-anchor="middle" class="s13 fm">(레코드 목록)</text><rect x="38" y="223" width="186" height="68" rx="6" fill="none" stroke="#F26B21" stroke-width="3"/><circle cx="246" cy="256" r="14" fill="#F26B21"/><text x="246" y="261" text-anchor="middle" class="s14 b fw">1</text><rect x="270" y="204" width="148" height="40" rx="6" fill="none" stroke="#F26B21" stroke-width="3"/><circle cx="446" cy="224" r="14" fill="#F26B21"/><text x="446" y="229" text-anchor="middle" class="s14 b fw">2</text>
</svg>