<svg xmlns="http://www.w3.org/2000/svg" viewBox="0 0 900 560" width="100%" preserveAspectRatio="xMidYMid meet">
<title>STEP 13 HTTPS 적용</title><desc>DNS 성공 후 Enforce HTTPS</desc>
<style>
  text{font-family:'Nanum Gothic','Malgun Gothic','Noto Sans KR','Apple SD Gothic Neo',sans-serif;}
  .m{font-family:'NanumGothicCoding','D2Coding','Consolas','Courier New',monospace;}
  .b{font-weight:700;}
  .s10{font-size:10px}.s11{font-size:11px}.s12{font-size:12px}.s13{font-size:13px}
  .s14{font-size:14px}.s16{font-size:16px}.s18{font-size:18px}.s20{font-size:20px}
  .s24{font-size:24px}.s28{font-size:28px}
  .fg{fill:#24292F}.fm{fill:#5B6B7C}.fw{fill:#FFFFFF}.fb{fill:#0969DA}
  .fo{fill:#F26B21}.fn{fill:#0E2A47}.fgr{fill:#1A7F37}.fr{fill:#C4341C}
</style>
<rect x="0" y="0" width="900" height="560" fill="#FFFFFF"/>

<rect x="8" y="8" width="884" height="544" rx="12" fill="#FFFFFF" stroke="#D9E0E8" stroke-width="1.5"/>
<path d="M8 20a12 12 0 0 1 12-12h860a12 12 0 0 1 12 12v60H8z" fill="#EDF1F5"/>
<circle cx="34" cy="30" r="6" fill="#FF5F57"/><circle cx="54" cy="30" r="6" fill="#FEBC2E"/><circle cx="74" cy="30" r="6" fill="#28C840"/>
<rect x="28" y="52" width="836" height="24" rx="12" fill="#FFFFFF" stroke="#D9E0E8" stroke-width="1"/>
<text x="46" y="69" class="s12 m fm">github.com/사용자이름/저장소/settings/pages</text>
<rect x="8" y="84" width="884" height="44" fill="#24292F"/>
<circle cx="42" cy="106" r="13" fill="#FFFFFF"/><circle cx="42" cy="106" r="9" fill="#24292F"/>
<rect x="68" y="94" width="250" height="24" rx="6" fill="#24292F" stroke="#57606A" stroke-width="1"/>
<text x="82" y="110" class="s11"fill="#8B949E">Type / to search</text>
<rect x="8" y="128" width="884" height="424" fill="#FFFFFF"/><rect x="36" y="152" width="828" height="64" rx="8" fill="#F4F6F9" stroke="#D9E0E8" stroke-width="1"/><text x="60" y="182" class="s13 b fg">Your site is live at</text><text x="190" y="182" class="s13 m fb">https://lms.내도메인.kr/</text><text x="60" y="204" class="s11 fm">Last deployed 1 minute ago</text><text x="36" y="254" class="s14 b fg">Custom domain</text><rect x="36" y="268" width="320" height="34" rx="6" fill="#FFFFFF" stroke="#D9E0E8" stroke-width="1"/><text x="52" y="291" class="s12 m fg">lms.내도메인.kr</text><text x="36" y="328" class="s13 b fgr">✓ DNS check successful</text><rect x="32" y="312" width="220" height="24" rx="12" fill="none" stroke="#F26B21" stroke-width="3"/><circle cx="14" cy="324" r="14" fill="#F26B21"/><text x="14" y="329" text-anchor="middle" class="s14 b fw">1</text><rect x="36" y="356" width="20" height="20" rx="4" fill="#0969DA"/><path d="M40 366 l4 4 l7 -8" stroke="#fff" stroke-width="2.5" fill="none"/><text x="68" y="372" class="s13 b fg">Enforce HTTPS</text><text x="68" y="396" class="s11 fm">http 로 들어와도 https 로 넘어간다. 인증서 발급 전에는 회색으로 비활성.</text><rect x="32" y="352" width="260" height="30" rx="6" fill="none" stroke="#F26B21" stroke-width="3"/><circle cx="318" cy="367" r="14" fill="#F26B21"/><text x="318" y="372" text-anchor="middle" class="s14 b fw">2</text><rect x="36" y="440" width="404" height="76" rx="8" fill="#FFF8E5" stroke="#EAC54F" stroke-width="1"/><text x="58" y="470" class="s13 b"fill="#8A6100">체크박스가 회색이면</text><text x="58" y="496" class="s12 fm">발급 중이다. 5~15분 뒤 새로고침.</text><rect x="460" y="440" width="404" height="76" rx="8" fill="#FDEEEB" stroke="#F0BDB2" stroke-width="1"/><text x="482" y="470" class="s13 b fr">성급하게 켜지 말 것</text><text x="482" y="496" class="s12 fm">인증서 없이 강제하면 사이트가 안 열린다.</text>
</svg>