<svg xmlns="http://www.w3.org/2000/svg" viewBox="0 0 900 560" width="100%" preserveAspectRatio="xMidYMid meet">
<title>STEP 14 최종 확인</title><desc>브라우저에서 자물쇠·화면·새로고침 확인</desc>
<style>
  text{font-family:'Nanum Gothic','Malgun Gothic','Noto Sans KR','Apple SD Gothic Neo',sans-serif;}
  .m{font-family:'NanumGothicCoding','D2Coding','Consolas','Courier New',monospace;}
  .b{font-weight:700;}
  .s10{font-size:10px}.s11{font-size:11px}.s12{font-size:12px}.s13{font-size:13px}
  .s14{font-size:14px}.s16{font-size:16px}.s18{font-size:18px}.s20{font-size:20px}
  .s24{font-size:24px}.s28{font-size:28px}
  .fg{fill:#24292F}.fm{fill:#5B6B7C}.fw{fill:#FFFFFF}.fb{fill:#0969DA}
  .fo{fill:#F26B21}.fn{fill:#0E2A47}.fgr{fill:#1A7F37}.fr{fill:#C4341C}
</style>
<rect x="0" y="0" width="900" height="560" fill="#FFFFFF"/>
<rect x="8" y="8" width="884" height="544" rx="12" fill="#FFFFFF" stroke="#D9E0E8" stroke-width="1.5"/><path d="M8 20a12 12 0 0 1 12-12h860a12 12 0 0 1 12 12v60H8z" fill="#EDF1F5"/><circle cx="34" cy="30" r="6" fill="#FF5F57"/><circle cx="54" cy="30" r="6" fill="#FEBC2E"/><circle cx="74" cy="30" r="6" fill="#28C840"/><rect x="28" y="52" width="836" height="24" rx="12" fill="#FFFFFF" stroke="#D9E0E8" stroke-width="1"/><g transform="translate(42,57)"><rect x="0" y="5" width="11" height="9" rx="2" fill="#1A7F37"/><path d="M2 5 V3.6 a3.6 3.6 0 0 1 7.2 0 V5" stroke="#1A7F37" stroke-width="1.6" fill="none"/></g><text x="64" y="69" class="s12 m fg">https://lms.내도메인.kr</text><rect x="36" y="52" width="26" height="24" rx="6" fill="none" stroke="#F26B21" stroke-width="3"/><circle cx="38" cy="32" r="12" fill="#F26B21"/><text x="38" y="37" text-anchor="middle" class="s14 b fw">1</text><rect x="8" y="84" width="884" height="64" fill="#0E2A47"/><text x="40" y="124" class="s18 b fw">내 사이트 제목</text><text x="700" y="124" class="s12"fill="#B7C7D8">메뉴 · 소개 · 문의</text><text x="40" y="206" class="s20 b fn">사이트 내용이 정상적으로 보인다</text><text x="40" y="244" class="s13 fm">README 텍스트가 아니라 내가 만든 화면이어야 한다.</text><rect x="40" y="266" width="150" height="36" rx="8" fill="#F26B21"/><text x="115" y="290" text-anchor="middle" class="s12 b fw">버튼도 눌린다</text><rect x="28" y="168" width="520" height="150" rx="6" fill="none" stroke="#F26B21" stroke-width="3"/><circle cx="572" cy="243" r="14" fill="#F26B21"/><text x="572" y="248" text-anchor="middle" class="s14 b fw">2</text><rect x="36" y="346" width="264" height="86" rx="8" fill="#E9F5EC" stroke="#A7D3B4" stroke-width="1"/><text x="56" y="378" class="s13 b fgr">① 자물쇠</text><text x="56" y="406" class="s11 fm">https 로 열리고 경고가 없다</text><rect x="316" y="346" width="264" height="86" rx="8" fill="#E9F5EC" stroke="#A7D3B4" stroke-width="1"/><text x="336" y="378" class="s13 b fgr">② 화면</text><text x="336" y="406" class="s11 fm">README 가 아니라 내 사이트</text><rect x="596" y="346" width="264" height="86" rx="8" fill="#E9F5EC" stroke="#A7D3B4" stroke-width="1"/><text x="616" y="378" class="s13 b fgr">③ 새로고침</text><text x="616" y="406" class="s11 fm">하위 주소에서 F5 → 404 없음</text><rect x="36" y="466" width="560" height="26" rx="13" fill="#FDEEEB" stroke="#C4341C" stroke-width="1"/><text x="50" y="484" class="s13 b fr">404 가 뜬다면 STEP 3 · STEP 3+ 로 — 도메인이 아니라 배포 문제</text>
</svg>