<svg xmlns="http://www.w3.org/2000/svg" viewBox="0 0 900 560" width="100%" preserveAspectRatio="xMidYMid meet">
<title>STEP 3+ 배포 확인</title><desc>Actions 탭에서 배포 성공 확인</desc>
<style>
  text{font-family:'Nanum Gothic','Malgun Gothic','Noto Sans KR','Apple SD Gothic Neo',sans-serif;}
  .m{font-family:'NanumGothicCoding','D2Coding','Consolas','Courier New',monospace;}
  .b{font-weight:700;}
  .s10{font-size:10px}.s11{font-size:11px}.s12{font-size:12px}.s13{font-size:13px}
  .s14{font-size:14px}.s16{font-size:16px}.s18{font-size:18px}.s20{font-size:20px}
  .s24{font-size:24px}.s28{font-size:28px}
  .fg{fill:#24292F}.fm{fill:#5B6B7C}.fw{fill:#FFFFFF}.fb{fill:#0969DA}
  .fo{fill:#F26B21}.fn{fill:#0E2A47}.fgr{fill:#1A7F37}.fr{fill:#C4341C}
</style>
<rect x="0" y="0" width="900" height="560" fill="#FFFFFF"/>

<rect x="8" y="8" width="884" height="544" rx="12" fill="#FFFFFF" stroke="#D9E0E8" stroke-width="1.5"/>
<path d="M8 20a12 12 0 0 1 12-12h860a12 12 0 0 1 12 12v60H8z" fill="#EDF1F5"/>
<circle cx="34" cy="30" r="6" fill="#FF5F57"/><circle cx="54" cy="30" r="6" fill="#FEBC2E"/><circle cx="74" cy="30" r="6" fill="#28C840"/>
<rect x="28" y="52" width="836" height="24" rx="12" fill="#FFFFFF" stroke="#D9E0E8" stroke-width="1"/>
<text x="46" y="69" class="s12 m fm">github.com/사용자이름/저장소/actions</text>
<rect x="8" y="84" width="884" height="44" fill="#24292F"/>
<circle cx="42" cy="106" r="13" fill="#FFFFFF"/><circle cx="42" cy="106" r="9" fill="#24292F"/>
<rect x="68" y="94" width="250" height="24" rx="6" fill="#24292F" stroke="#57606A" stroke-width="1"/>
<text x="82" y="110" class="s11"fill="#8B949E">Type / to search</text>
<rect x="8" y="128" width="884" height="424" fill="#FFFFFF"/><text x="36" y="168" class="s16 b fg">All workflows</text><rect x="36" y="196" width="828" height="52" rx="8" fill="#E9F5EC" stroke="#D9E0E8" stroke-width="1"/><text x="58" y="228" class="s16 b">✓</text><text x="58" y="228" class="s16 b" fill="#1A7F37">✓</text><text x="86" y="228" class="s13 b fg">Deploy web to GitHub Pages</text><text x="700" y="228" class="s12 fm">main · 2분 전</text><rect x="36" y="258" width="828" height="52" rx="8" fill="#FFFFFF" stroke="#D9E0E8" stroke-width="1"/><text x="58" y="290" class="s16 b">✓</text><text x="58" y="290" class="s16 b" fill="#1A7F37">✓</text><text x="86" y="290" class="s13 fg">Deploy web to GitHub Pages</text><text x="700" y="290" class="s12 fm">main · 어제</text><rect x="36" y="320" width="828" height="52" rx="8" fill="#FFFFFF" stroke="#D9E0E8" stroke-width="1"/><text x="58" y="352" class="s16 b">✕</text><text x="58" y="352" class="s16 b" fill="#C4341C">✕</text><text x="86" y="352" class="s13 fg">Deploy web to GitHub Pages</text><text x="700" y="352" class="s12 fm">main · 3일 전</text><rect x="32" y="192" width="836" height="60" rx="6" fill="none" stroke="#F26B21" stroke-width="3"/><circle cx="890" cy="222" r="14" fill="#F26B21"/><text x="890" y="227" text-anchor="middle" class="s14 b fw">1</text><rect x="36" y="480" width="560" height="26" rx="13" fill="#FFF1E7" stroke="#F26B21" stroke-width="1"/><text x="50" y="498" class="s13 b fo">맨 위 실행에 초록 체크(✓)가 있어야 새 내용이 올라간다</text>
</svg>