<svg xmlns="http://www.w3.org/2000/svg" viewBox="0 0 900 560" width="100%" preserveAspectRatio="xMidYMid meet">
<title>STEP 7 레코드 확인</title><desc>DNS 표에서 값과 프록시 상태 확인</desc>
<style>
  text{font-family:'Nanum Gothic','Malgun Gothic','Noto Sans KR','Apple SD Gothic Neo',sans-serif;}
  .m{font-family:'NanumGothicCoding','D2Coding','Consolas','Courier New',monospace;}
  .b{font-weight:700;}
  .s10{font-size:10px}.s11{font-size:11px}.s12{font-size:12px}.s13{font-size:13px}
  .s14{font-size:14px}.s16{font-size:16px}.s18{font-size:18px}.s20{font-size:20px}
  .s24{font-size:24px}.s28{font-size:28px}
  .fg{fill:#24292F}.fm{fill:#5B6B7C}.fw{fill:#FFFFFF}.fb{fill:#0969DA}
  .fo{fill:#F26B21}.fn{fill:#0E2A47}.fgr{fill:#1A7F37}.fr{fill:#C4341C}
</style>
<rect x="0" y="0" width="900" height="560" fill="#FFFFFF"/>

<rect x="8" y="8" width="884" height="544" rx="12" fill="#FFFFFF" stroke="#D9E0E8" stroke-width="1.5"/>
<path d="M8 20a12 12 0 0 1 12-12h860a12 12 0 0 1 12 12v60H8z" fill="#EDF1F5"/>
<circle cx="34" cy="30" r="6" fill="#FF5F57"/><circle cx="54" cy="30" r="6" fill="#FEBC2E"/><circle cx="74" cy="30" r="6" fill="#28C840"/>
<rect x="28" y="52" width="836" height="24" rx="12" fill="#FFFFFF" stroke="#D9E0E8" stroke-width="1"/>
<text x="46" y="69" class="s12 m fm">dash.cloudflare.com  →  DNS  →  Records</text>
<rect x="8" y="84" width="884" height="44" fill="#F38020"/>
<rect x="8" y="128" width="884" height="424" fill="#FFFFFF"/><text x="30" y="112" class="s12 b fw">저장 결과 확인</text><rect x="36" y="160" width="828" height="300" rx="8" fill="#FFFFFF" stroke="#D9E0E8" stroke-width="1"/><rect x="36" y="160" width="828" height="34" rx="8" fill="#F4F6F9"/><rect x="36" y="182" width="828" height="12" fill="#F4F6F9"/><text x="60" y="182" class="s11 b fm">Name</text><text x="330" y="182" class="s11 b fm">Type</text><text x="420" y="182" class="s11 b fm">Content</text><text x="700" y="182" class="s11 b fm">Proxy status</text><rect x="40" y="197" width="820" height="52" rx="6" fill="#FFF8F2"/><text x="60" y="228" class="s12 m fg">lms.내도메인.kr</text><text x="330" y="228" class="s12 fg">CNAME</text><text x="420" y="228" class="s12 m fg">사용자이름.github.io</text><g><circle cx="712" cy="223" r="8" fill="#E5E9F2"/><circle cx="705" cy="226" r="5.5" fill="#E5E9F2"/></g><text x="728" y="228" class="s12 fgr">DNS only</text><line x1="40" y1="250" x2="860" y2="250" stroke="#EEF1F5"/><text x="60" y="286" class="s12 m fg">www.내도메인.kr</text><text x="330" y="286" class="s12 fg">CNAME</text><text x="420" y="286" class="s12 m fg">사용자이름.github.io</text><g><circle cx="712" cy="281" r="8" fill="#E5E9F2"/><circle cx="705" cy="284" r="5.5" fill="#E5E9F2"/></g><text x="728" y="286" class="s12 fgr">DNS only</text><line x1="40" y1="308" x2="860" y2="308" stroke="#EEF1F5"/><text x="60" y="344" class="s12 m fg">내도메인.kr</text><text x="330" y="344" class="s12 fg">A</text><text x="420" y="344" class="s12 m fg">185.199.108.153</text><g><circle cx="712" cy="339" r="8" fill="#E5E9F2"/><circle cx="705" cy="342" r="5.5" fill="#E5E9F2"/></g><text x="728" y="344" class="s12 fgr">DNS only</text><line x1="40" y1="366" x2="860" y2="366" stroke="#EEF1F5"/><text x="60" y="402" class="s12 m fg">내도메인.kr</text><text x="330" y="402" class="s12 fg">A</text><text x="420" y="402" class="s12 m fg">185.199.109.153</text><g><circle cx="712" cy="397" r="8" fill="#E5E9F2"/><circle cx="705" cy="400" r="5.5" fill="#E5E9F2"/></g><text x="728" y="402" class="s12 fgr">DNS only</text><rect x="40" y="196" width="820" height="52" rx="6" fill="none" stroke="#F26B21" stroke-width="3"/><circle cx="20" cy="222" r="14" fill="#F26B21"/><text x="20" y="227" text-anchor="middle" class="s14 b fw">1</text><rect x="696" y="196" width="164" height="52" rx="26" fill="none" stroke="#F26B21" stroke-width="3"/><circle cx="886" cy="222" r="14" fill="#F26B21"/><text x="886" y="227" text-anchor="middle" class="s14 b fw">2</text><rect x="36" y="486" width="470" height="26" rx="13" fill="#E9F5EC" stroke="#1A7F37" stroke-width="1"/><text x="50" y="504" class="s13 b fgr">구름이 회색이어야 인증서가 발급된다</text>
</svg>