<svg xmlns="http://www.w3.org/2000/svg" viewBox="0 0 1200 560" width="1200" height="560" font-family="Pretendard, 'Noto Sans KR', 'Noto Sans KR Thin', 'Malgun Gothic', 'Apple SD Gothic Neo', sans-serif">
  <title>STEP 1 저장소 설정 들어가기</title>
  <desc>GitHub 저장소 상단 Settings 탭 위치</desc>
  <defs>
  <marker id="arw" viewBox="0 0 10 10" refX="9" refY="5" markerWidth="6" markerHeight="6" orient="auto">
    <path d="M0 0 L10 5 L0 10 z" fill="#CF222E"/></marker>
  <marker id="arwB" viewBox="0 0 10 10" refX="9" refY="5" markerWidth="6" markerHeight="6" orient="auto">
    <path d="M0 0 L10 5 L0 10 z" fill="#0046C8"/></marker>
</defs>
  <rect width="1200" height="560" fill="#FFFFFF"/>
  
  <g class="step-head">
    <rect x="40" y="26" width="96" height="34" rx="17" fill="#0046C8"/>
    <text x="88" y="49" font-size="15" fill="#FFFFFF" font-weight="700" text-anchor="middle">STEP 1</text>
    <text x="152" y="51" font-size="24" fill="#1B2A4A" font-weight="700">저장소 설정으로 들어간다</text>
    <text x="40" y="82" font-size="13" fill="#6B7280">github.com → 내 저장소 → 상단 Settings 탭</text>
  </g>
  <g class="browser">
    <rect x="40" y="110" width="1120" height="380" rx="10" fill="#FFFFFF" stroke="#D1D9E0" stroke-width="1"/>
    <rect x="40" y="110" width="1120" height="44" rx="10" fill="#F6F8FA"/><rect x="40" y="140" width="1120" height="14" rx="0" fill="#F6F8FA"/>
    <circle cx="64" cy="132" r="6" fill="#FF5F57"/>
    <circle cx="84" cy="132" r="6" fill="#FEBC2E"/>
    <circle cx="104" cy="132" r="6" fill="#28C840"/>
    <rect x="128" y="120" width="1000" height="24" rx="12" fill="#FFFFFF" stroke="#D1D9E0" stroke-width="1"/>
    <text x="144" y="137" font-size="12" fill="#59636E" font-family="ui-monospace, Consolas, 'Courier New', monospace">github.com/사용자이름/저장소</text>
  </g><g class="gh-head">
    <circle cx="74" cy="190" r="12" fill="#1F2328"/>
    <circle cx="74" cy="190" r="5" fill="#FFFFFF"/>
    <text x="96" y="195" font-size="14" fill="#0969DA">사용자이름 / 저장소</text>
    <text x="71" y="220" font-size="13.5" fill="#59636E">Code</text><text x="131.8" y="220" font-size="13.5" fill="#59636E">Issues</text><text x="209" y="220" font-size="13.5" fill="#59636E">Pull requests</text><text x="343.6" y="220" font-size="13.5" fill="#59636E">Actions</text><text x="429" y="220" font-size="13.5" fill="#59636E">Projects</text><rect x="511.6" y="228" width="87.6" height="3" rx="2" fill="#FD8C73"/><text x="522.6" y="220" font-size="13.5" fill="#1F2328" font-weight="700">Settings</text>
    <line x1="40" y1="231" x2="1160" y2="231" stroke="#D1D9E0"/>
  </g><rect x="80" y="270" width="480" height="170" rx="8" fill="#F6F8FA" stroke="#D1D9E0" stroke-width="1"/><text x="104" y="300" font-size="14" fill="#59636E" font-weight="700">📁  저장소 파일 목록</text><text x="104" y="332" font-size="13" fill="#1F2328" font-family="ui-monospace, Consolas, 'Courier New', monospace">index.html</text><text x="104" y="360" font-size="13" fill="#1F2328" font-family="ui-monospace, Consolas, 'Courier New', monospace">style.css</text><text x="104" y="388" font-size="13" fill="#1F2328" font-family="ui-monospace, Consolas, 'Courier New', monospace">README.md</text><rect x="600" y="270" width="520" height="170" rx="8" fill="#FFFFFF" stroke="#D1D9E0" stroke-width="1"/><text x="624" y="300" font-size="14" fill="#1F2328" font-weight="700">About</text><text x="624" y="330" font-size="13" fill="#59636E">내 웹사이트 저장소</text><rect x="507.6" y="196" width="95.6" height="36" rx="8" fill="none" stroke="#CF222E" stroke-width="2.5" stroke-dasharray="7 4"/>
  <g class="callout"><circle cx="555.4" cy="160" r="15" fill="#CF222E"/>
  <text x="555.4" y="165" font-size="13" fill="#FFFFFF" font-weight="700" text-anchor="middle">1</text></g><path d="M555.4 176 L555.4 192" stroke="#CF222E" stroke-width="2.5" fill="none" marker-end="url(#arw)"/><rect x="700" y="500" width="460" height="66" rx="10" fill="#FFF8E6" stroke="#E3B341" stroke-width="1"/><text x="716" y="528" font-size="13.5" fill="#7A5B00" font-weight="700">Settings 는 저장소 주인에게만 보인다</text><text x="716" y="550" font-size="13.5" fill="#7A5B00">안 보이면 그 저장소의 소유자가 아니다</text><rect x="40" y="500" width="640" height="66" rx="10" fill="#FFF8E6" stroke="#E3B341" stroke-width="1"/><text x="56" y="528" font-size="13.5" fill="#7A5B00" font-weight="700">① 상단 탭 줄 맨 오른쪽 Settings 를 누른다</text><text x="56" y="550" font-size="13.5" fill="#7A5B00">Code · Issues · Pull requests · Actions · Projects 다음 자리</text>
</svg>